PathFileType	4	(X/Y/Z)	C:/Users/opensim2020/Desktop/walking_exp_matlab/subject02_walking17_run.trc	
DataRate	CameraRate	NumFrames	NumMarkers	Units	OrigDataRate	OrigDataStartFrame	OrigNumFrames	
100.00	100.00	4	51	mm	100.00	287	112	
Frame#	Time	LSHO			RELB			LANK			LTOE			LUPA			RUPA			RWRB			LKNE			RSHO			RFIN			RFRM			RASI			LTHI			LWRB			RTHI			LASI			LFHD			RKNE			LELB			LTIB			RWRA			STRN			RTIB			RFHD			RANK			RBHD			RTOE			RHEE			C7			LHEE			LFRM			CLAV			LWRA			LBHD			RBAK			LFIN			T10			LPSI			RPSI			*39			*40			*41			*42			*43			*44			*45			*46			*47			*48			*49			*50			
		X1	Y1	Z1	X2	Y2	Z2	X3	Y3	Z3	X4	Y4	Z4	X5	Y5	Z5	X6	Y6	Z6	X7	Y7	Z7	X8	Y8	Z8	X9	Y9	Z9	X10	Y10	Z10	X11	Y11	Z11	X12	Y12	Z12	X13	Y13	Z13	X14	Y14	Z14	X15	Y15	Z15	X16	Y16	Z16	X17	Y17	Z17	X18	Y18	Z18	X19	Y19	Z19	X20	Y20	Z20	X21	Y21	Z21	X22	Y22	Z22	X23	Y23	Z23	X24	Y24	Z24	X25	Y25	Z25	X26	Y26	Z26	X27	Y27	Z27	X28	Y28	Z28	X29	Y29	Z29	X30	Y30	Z30	X31	Y31	Z31	X32	Y32	Z32	X33	Y33	Z33	X34	Y34	Z34	X35	Y35	Z35	X36	Y36	Z36	X37	Y37	Z37	X38	Y38	Z38	X39	Y39	Z39	X40	Y40	Z40	X41	Y41	Z41	X42	Y42	Z42	X43	Y43	Z43	X44	Y44	Z44	X45	Y45	Z45	X46	Y46	Z46	X47	Y47	Z47	X48	Y48	Z48	X49	Y49	Z49	X50	Y50	Z50	X51	Y51	Z51	

57	0.560	-98.54617	218.80647	1444.09473	392.31619	103.63731	1115.04260	-43.86420	-79.90409	270.89932	-52.21619	-31.49089	122.73194	-277.76190	223.59334	1391.90100	330.60324	78.38329	1246.92847	315.11639	342.48676	1083.15369	-56.65305	267.53522	444.40997	240.53903	152.48247	1413.08630	292.87894	382.35083	1132.36450	357.58429	225.63911	1097.32654	196.36775	165.25488	913.83722	-102.92430	236.78322	607.88666	-416.98071	266.17047	1045.71326	253.99794	140.56462	625.99451	-63.44364	212.49265	892.41815	-7.65264	252.07359	1670.17236	216.82915	163.89589	416.06616	-399.97855	250.80849	1318.47400	-57.19050	108.94936	396.02710	277.44440	320.38327	1121.57739	70.13799	250.33612	1185.45154	217.53299	59.28584	260.72324	137.53519	250.03609	1665.17627	179.20795	-45.34609	100.68515	130.67619	127.51707	1557.87622	194.14191	89.14736	37.39099	122.50246	-98.22919	55.20776	48.60301	113.18547	1461.04114	6.21299	-124.79166	282.81955	-420.24570	265.04303	1174.03296	61.29684	244.28357	1368.45642	-365.50720	238.11485	1046.87341	-11.73298	141.14833	1567.76233	83.75474	15.22850	1311.61475	-401.48962	252.31006	977.24542	20.51994	7.98947	1213.23486	-26.03366	0.96788	976.80774	78.16386	-23.46519	984.62683	-3360.42651	2845.10010	1034.58240																74.25810	134.06364	1717.75452															 
58	0.570	-98.69044	253.62228	1450.65625	394.80289	163.04836	1121.41528	-42.22390	-2.12605	250.44212	-44.85775	62.95211	109.93530	-278.79745	254.56712	1401.34521	335.03986	132.54805	1252.51660	305.38425	398.78473	1106.62402	-52.86813	329.11569	457.20697	239.78923	197.75665	1418.89990	280.75095	434.26157	1158.09338	354.23270	283.84552	1111.76721	195.57115	209.16565	918.04449	-102.77579	286.63657	619.05920	-417.58145	293.11591	1057.02893	252.01830	166.54637	624.09808	-67.00259	253.18576	904.55457	-9.62146	292.17825	1674.39392	216.55455	175.48383	412.09479	-404.56799	275.37515	1329.24500	-57.24100	175.31067	393.77347	269.48535	372.41284	1143.67151	65.58135	290.59274	1189.48999	215.61151	64.92087	261.20712	135.60831	290.27222	1669.54260	177.22853	-44.50784	104.90118	129.03586	167.74733	1562.11755	193.73598	88.63628	37.02179	119.81626	-96.57335	61.04382	48.78765	151.18622	1464.63208	6.60583	-49.41861	259.51718	-423.21744	290.33713	1185.39258	58.48686	284.96616	1373.06360	-363.89285	269.59766	1059.20789	-13.56739	181.39563	1571.72852	85.64064	56.61581	1314.45068	-398.50375	283.23245	988.95288	22.70122	47.87292	1216.70410	-23.33100	41.60678	979.60199	80.14230	17.84756	986.93402	-3357.41577	2845.91113	1034.51648																72.22326	174.13606	1721.82800															 
59	0.580	-99.20306	288.96744	1457.48511	396.46152	221.38939	1130.07886	-39.79253	77.39720	229.32277	-38.10373	159.99263	99.18166	-280.31125	285.56458	1410.24963	339.31293	186.93356	1260.41199	295.54117	452.12997	1130.27271	-51.49080	387.69009	471.52484	238.40469	243.16182	1425.94995	269.48172	483.74292	1183.91492	349.68445	339.73199	1127.67688	193.14479	254.48053	923.91180	-102.98820	335.47534	630.96100	-416.08435	321.03876	1067.52222	250.51694	190.06480	624.67010	-70.66785	293.80298	916.92688	-11.82796	332.36282	1680.02490	216.20163	187.61421	412.80502	-408.07388	299.69748	1338.33167	-58.31451	240.13359	389.92453	261.04245	422.19894	1165.42810	60.62372	331.48526	1195.05872	214.72162	70.77621	265.19464	133.42973	330.65704	1675.13171	177.27296	-41.92785	111.57126	126.86535	208.04732	1567.81958	193.68092	88.68022	36.93174	119.76283	-95.24737	71.38788	48.95413	190.06461	1469.23792	8.11863	28.66088	233.56883	-424.73962	315.63855	1195.41602	55.80388	325.35699	1379.06689	-360.69626	302.44492	1071.09729	-15.61600	221.46069	1577.45801	89.14193	98.37107	1319.39075	-393.59656	316.18179	1000.39960	25.66020	88.56739	1220.75098	-21.15753	83.26511	983.10590	82.72549	60.22901	990.29810	-3357.29834	2845.81616	1034.60205																70.01659	214.34520	1727.42151															 
60	0.590	-100.24311	324.96982	1464.40112	397.46964	278.22049	1140.44751	-36.90781	160.00081	208.06114	-32.12614	258.60632	90.62417	-282.14441	316.35355	1418.27124	342.75876	241.58041	1270.18665	285.87045	502.50137	1153.26941	-51.20983	443.91177	485.06146	236.41853	288.83145	1433.94556	257.99774	530.16522	1208.23779	345.07236	393.42831	1144.65137	189.38910	299.95520	929.63684	-103.42616	383.08670	643.42224	-413.13101	350.06363	1077.10815	248.86505	211.72382	628.44373	-74.17296	333.97714	927.61920	-14.19681	372.64725	1686.48743	216.68919	201.23106	416.92722	-410.46893	323.88092	1345.97961	-59.50382	304.52271	384.62918	252.65829	469.31180	1186.47388	56.19291	373.12244	1202.12756	215.91122	78.95453	274.63269	130.62839	370.98279	1681.21265	178.94374	-37.39597	121.84956	124.50813	248.23161	1574.61597	193.85873	88.93455	36.51571	121.75079	-91.34613	84.93285	49.09839	230.24139	1475.00806	10.58766	110.37311	207.09966	-425.11926	341.21979	1204.12891	53.00911	365.84247	1386.08167	-356.41171	336.53076	1082.62830	-17.97350	261.44739	1584.43970	93.56338	140.47420	1325.26819	-387.44818	350.95343	1011.54596	29.25755	129.61211	1225.31152	-19.72359	125.22544	988.29236	86.06367	103.55656	994.07550	-3357.39038	2845.97241	1034.29968																67.66541	255.01341	1734.31165															 
